# xmcd
#
# Track frame offsets:
# 150
# 17987
# 38187
# 58942
# 79515
# 99487
# 114637
# 131262
# 147227
# 168627
# 186987
# 205990
#
# Disc length: 3038 seconds
#
# Revision: 0
# Processed by: cddbd v1.5.2PL0 Copyright (c) Steve Scherf et al.
# Submitted via: Audion 3.0.2 (http://www.panic.com/audion/)
#
DISCID=aa0bdc0c
DTITLE=Johnnie Taylor - Johnnie Taylor Greatest Hits Disc 2
DYEAR=1900
DGENRE=
TTITLE0=Wall To Wall
TTITLE1=Disco Lady
TTITLE2=I Found Love
TTITLE3=I Believe In You
TTITLE4=Sending You a Kiss
TTITLE5=Lady, My Whole World Is You
TTITLE6=Big Head Hundreds
TTITLE7=Still Called The Blues
TTITLE8=Slide On
TTITLE9=Good Love
TTITLE10=Nothing As Beautiful As You
TTITLE11=Soul Heaven
EXTD=
EXTT0=
EXTT1=
EXTT2=
EXTT3=
EXTT4=
EXTT5=
EXTT6=
EXTT7=
EXTT8=
EXTT9=
EXTT10=
EXTT11=
PLAYORDER=
